<svg width="20" height="19" viewBox="0 0 20 19" fill="none" xmlns="http://www.w3.org/2000/svg">
<path d="M20 2.20937C19.2518 2.59082 18.4579 2.84101 17.645 2.95157C18.5015 2.36214 19.1424 1.43529 19.4483 0.343579C18.6423 0.893419 17.7602 1.2804 16.8404 1.48769C16.277 0.799286 15.5466 0.321141 14.7438 0.115262C13.941 -0.0906173 13.1029 -0.0147337 12.3381 0.333073C11.5733 0.680879 10.9172 1.28456 10.4547 2.06584C9.99226 2.84712 9.74485 3.76996 9.74457 4.71468C9.74403 5.07598 9.77916 5.43618 9.8493 5.78839C8.21772 5.69429 6.62162 5.20714 5.16461 4.35856C3.70761 3.50999 2.42228 2.31897 1.39208 0.862831C0.869195 1.90133 0.710208 3.12952 0.947432 4.29781C1.18466 5.4661 1.80029 6.48682 2.66922 7.15253C2.01838 7.12965 1.38171 6.92849 0.812261 6.5658V6.62447C0.811071 7.71001 1.1363 8.76272 1.73296 9.60461C2.32963 10.4465 3.16111 11.0259 4.08685 11.2449C3.48286 11.4329 2.84948 11.46 2.23499 11.3241C2.49648 12.2607 3.00645 13.0798 3.69349 13.6669C4.38053 14.254 5.21023 14.5796 6.06641 14.5981C4.60952 15.9113 2.80984 16.6223 0.957854 16.6164C0.637752 16.6162 0.31793 16.5946 0 16.5519C1.87709 17.9352 4.06092 18.6694 6.29119 18.667C13.8365 18.667 17.9642 11.4855 17.9642 5.2574C17.9642 5.05498 17.9642 4.85256 17.9642 4.65014C18.7633 3.98134 19.4525 3.15493 20 2.20937Z" fill="white"/>
</svg>
