<svg width="16" height="16" viewBox="0 0 16 16" fill="none" xmlns="http://www.w3.org/2000/svg">
<path d="M3.43828 0.0468893C2.54141 0.181264 1.83203 0.537515 1.18516 1.18439C0.519531 1.85001 0.157031 2.59376 0.0351562 3.52814C-0.0117187 3.89376 -0.0117187 12.1063 0.0351562 12.4719C0.157031 13.4063 0.519531 14.15 1.18516 14.8156C1.85078 15.4813 2.59453 15.8438 3.52891 15.9656C3.89453 16.0125 12.107 16.0125 12.4727 15.9656C13.407 15.8438 14.1508 15.4813 14.8164 14.8156C15.482 14.15 15.8445 13.4063 15.9664 12.4719C16.0133 12.1063 16.0133 3.89376 15.9664 3.52814C15.8445 2.59376 15.482 1.85001 14.8164 1.18439C14.1508 0.518764 13.407 0.156264 12.4727 0.0343895C12.0727 -0.0187359 3.79141 -0.00623512 3.43828 0.0468893ZM12.8039 1.45939C13.157 1.58126 13.2352 1.62189 13.5258 1.82189C13.9883 2.14064 14.3539 2.63751 14.5383 3.19689L14.6414 3.51564V8.00001C14.6414 12.2906 14.6383 12.4938 14.582 12.6719C14.3727 13.35 14.0102 13.8531 13.4758 14.2156C13.2445 14.3719 13.0445 14.4625 12.7195 14.5656L12.4852 14.6406H8.00078H3.51641L3.19766 14.5375C2.32266 14.25 1.71016 13.6094 1.41953 12.6719C1.36328 12.4938 1.36016 12.2906 1.36016 8.00001C1.36016 3.70939 1.36328 3.50626 1.41953 3.32814C1.64141 2.61564 2.02891 2.09689 2.60703 1.73439C2.85078 1.58126 3.26953 1.41876 3.52891 1.37501C3.60703 1.36251 5.66328 1.35314 8.09453 1.35626L12.5164 1.35939L12.8039 1.45939Z" fill="#758698"/>
<path d="M12.125 2.70004C11.9031 2.75004 11.775 2.81879 11.625 2.97192C11.4219 3.18129 11.3594 3.34692 11.3594 3.67192C11.3594 3.91567 11.3719 3.97504 11.4437 4.10942C11.6156 4.43442 11.9062 4.62504 12.2687 4.65004C12.5344 4.66567 12.675 4.62817 12.8969 4.47817C13.5187 4.05942 13.4469 3.10629 12.7719 2.78442C12.5406 2.67504 12.3562 2.65004 12.125 2.70004Z" fill="#758698"/>
<path d="M7.48828 4.03439C5.97891 4.24376 4.69141 5.29376 4.22266 6.70626C4.06328 7.18751 4.01953 7.46564 4.01953 8.00001C4.01953 8.53439 4.06328 8.81251 4.22266 9.29689C4.60078 10.4281 5.57578 11.4 6.71328 11.7813C7.18828 11.9375 7.46953 11.9813 8.00078 11.9813C8.53203 11.9813 8.81328 11.9375 9.28828 11.7813C10.4258 11.4 11.4008 10.4281 11.7789 9.29689C11.9383 8.81251 11.982 8.53439 11.982 8.00001C11.982 7.30001 11.8477 6.72814 11.5445 6.15626C10.9664 5.07189 9.97266 4.32501 8.76641 4.07814C8.46641 4.01564 7.78516 3.99064 7.48828 4.03439ZM8.80391 5.46564C9.13828 5.57501 9.22891 5.61876 9.48516 5.79064C10.0102 6.14376 10.3633 6.63439 10.5664 7.28126C10.6289 7.48439 10.6414 7.58126 10.6414 8.00001C10.6414 8.51564 10.6039 8.70626 10.4195 9.11564C10.1883 9.64064 9.64141 10.1875 9.11328 10.4219C8.70703 10.6031 8.51641 10.6406 8.00078 10.6406C7.48516 10.6406 7.29453 10.6031 6.88828 10.4219C6.36016 10.1875 5.81328 9.64064 5.58203 9.11564C5.39766 8.70626 5.36016 8.51564 5.36016 8.00001C5.36016 7.58126 5.37266 7.48439 5.43516 7.28126C5.54141 6.94376 5.63516 6.74689 5.81328 6.48751C6.16641 5.97501 6.66016 5.62189 7.26641 5.44376C7.57578 5.35314 7.62266 5.34689 8.09453 5.35939C8.46641 5.36876 8.55078 5.38126 8.80391 5.46564Z" fill="#758698"/>
</svg>
