<svg width="29" height="25" viewBox="0 0 29 25" fill="none" xmlns="http://www.w3.org/2000/svg">
<path fill-rule="evenodd" clip-rule="evenodd" d="M27.46 24.4973V0.50293H28.35V24.4973H27.46ZM27.46 24.4973L26.5255 0.50293H25.6355L26.567 24.4973H27.46ZM26.57 24.4973L24.7009 0.50293H23.8109L25.6799 24.4973H26.57ZM25.6562 24.4973L22.8438 0.50293H21.9537L24.7543 24.4973H25.6562ZM24.7365 24.4973L21.0044 0.50293H20.1144L23.8435 24.4973H24.7365ZM23.8257 24.4973L19.1532 0.50293H18.2483L22.9209 24.4973H23.8257ZM22.912 24.4973L17.2752 0.50293H16.3615L21.9982 24.4973H22.912ZM21.9893 24.4973L15.3676 0.50293H14.4479L21.043 24.4973H21.9893ZM21.0608 24.4973L13.4927 0.50293H12.5641L20.1322 24.4973H21.0608ZM20.1203 24.4973L11.5702 0.50293H10.6298L19.1502 24.4973H20.1203ZM0 0.50293V24.4973H0.890017V0.50293H0ZM0.890017 0.50293L1.88684 24.4973H2.77685L1.78003 0.50293H0.890017ZM1.78003 0.50293L3.78257 24.4973H4.67259L2.67005 0.50293H1.78003ZM2.68488 0.50293L5.63381 24.4973H6.52382L3.56007 0.50293H2.68488ZM3.59864 0.50293L7.59481 24.4973H8.48483L4.48568 0.50293H3.59864ZM4.48865 0.50293L9.44308 24.4973H10.3509L5.39647 0.50293H4.48865ZM5.37867 0.50293L11.4189 24.4973H12.3356L6.29539 0.50293H5.37867ZM6.29242 0.50293L13.5016 24.4973H14.4272L7.21804 0.50293H6.29242ZM7.20914 0.50293L15.4744 24.4973H16.4119L8.15849 0.50293H7.20914ZM8.15255 0.50293L11.9025 9.46757L18.1326 24.3643L18.186 24.4973H19.1443L19.0701 24.3217L12.84 9.42243L9.11377 0.50293H8.15255Z" fill="white"/>
</svg>
