<svg width="34" height="30" viewBox="0 0 34 30" fill="none" xmlns="http://www.w3.org/2000/svg">
<path fill-rule="evenodd" clip-rule="evenodd" d="M32.8384 29.1165V0.886719H33.8855V29.1165H32.8384ZM32.8384 29.1165L31.7389 0.886719H30.6918L31.7878 29.1165H32.8384ZM31.7913 29.1165L29.5923 0.886719H28.5452L30.7442 29.1165H31.7913ZM30.7162 29.1165L27.4073 0.886719H26.3602L29.6552 29.1165H30.7162ZM29.6342 29.1165L25.2433 0.886719H24.1962L28.5836 29.1165H29.6342ZM28.5627 29.1165L23.0653 0.886719H22.0007L27.4981 29.1165H28.5627ZM27.4876 29.1165L20.8559 0.886719H19.7808L26.4126 29.1165H27.4876ZM26.4021 29.1165L18.6115 0.886719H17.5295L25.2887 29.1165H26.4021ZM25.3096 29.1165L16.4056 0.886719H15.3131L24.2171 29.1165H25.3096ZM24.2032 29.1165L14.1438 0.886719H13.0374L23.0618 29.1165H24.2032ZM0.53125 0.886719V29.1165H1.57837V0.886719H0.53125ZM1.57837 0.886719L2.75115 29.1165H3.79827L2.62549 0.886719H1.57837ZM2.62549 0.886719L4.98151 29.1165H6.02863L3.67261 0.886719H2.62549ZM3.69006 0.886719L7.15952 29.1165H8.20665L4.71973 0.886719H3.69006ZM4.76511 0.886719L9.46668 29.1165H10.5138L5.80874 0.886719H4.76511ZM5.81223 0.886719L11.6412 29.1165H12.7093L6.88029 0.886719H5.81223ZM6.85935 0.886719L13.9658 29.1165H15.0443L7.93788 0.886719H6.85935ZM7.93439 0.886719L16.4161 29.1165H17.5051L9.0234 0.886719H7.93439ZM9.01293 0.886719L18.7372 29.1165H19.8402L10.1299 0.886719H9.01293ZM10.1229 0.886719L14.5347 11.4338L21.8646 28.9601L21.9274 29.1165H23.0548L22.9676 28.9099L15.6377 11.3807L11.2538 0.886719H10.1229Z" fill="url(#paint0_linear_1_14755)"/>
<defs>
<linearGradient id="paint0_linear_1_14755" x1="17.1944" y1="29.2493" x2="17.1944" y2="-3.32443" gradientUnits="userSpaceOnUse">
<stop stop-color="#22B4FB"/>
<stop offset="0.68" stop-color="#006EF3"/>
<stop offset="0.71875" stop-color="#006EF3"/>
</linearGradient>
</defs>
</svg>
