<svg width="147" height="33" viewBox="0 0 147 33" fill="none" xmlns="http://www.w3.org/2000/svg">
<g clip-path="url(#clip0_18_118)">
<path fill-rule="evenodd" clip-rule="evenodd" d="M36.0136 32.5635V0.439941H37.1797V32.5635H36.0136ZM36.0136 32.5635L34.7892 0.439941H33.6231L34.8436 32.5635H36.0136ZM34.8475 32.5635L32.3986 0.439941H31.2325L33.6814 32.5635H34.8475ZM33.6503 32.5635L29.9654 0.439941H28.7992L32.4686 32.5635H33.6503ZM32.4453 32.5635L27.5554 0.439941H26.3893L31.2753 32.5635H32.4453ZM31.252 32.5635L25.1299 0.439941H23.9443L30.0664 32.5635H31.252ZM30.0548 32.5635L22.6694 0.439941H21.4722L28.8575 32.5635H30.0548ZM28.8459 32.5635L20.17 0.439941H18.965L27.6059 32.5635H28.8459ZM27.6292 32.5635L17.7134 0.439941H16.4968L26.4126 32.5635H27.6292ZM26.3971 32.5635L15.1946 0.439941H13.9624L25.126 32.5635H26.3971ZM0.0351562 0.439941V32.5635H1.20127V0.439941H0.0351562ZM1.20127 0.439941L2.50731 32.5635H3.67342L2.36738 0.439941H1.20127ZM2.36738 0.439941L4.99113 32.5635H6.15724L3.53349 0.439941H2.36738ZM3.55293 0.439941L7.41664 32.5635H8.58276L4.6996 0.439941H3.55293ZM4.75014 0.439941L9.98598 32.5635H11.1521L5.91236 0.439941H4.75014ZM5.91625 0.439941L12.4076 32.5635H13.597L7.10568 0.439941H5.91625ZM7.08236 0.439941L14.9964 32.5635H16.1975L8.28345 0.439941H7.08236ZM8.27957 0.439941L17.7251 32.5635H18.9378L9.49232 0.439941H8.27957ZM9.48066 0.439941L20.3099 32.5635H21.5383L10.7245 0.439941H9.48066ZM10.7167 0.439941L15.63 12.4418L23.7927 32.3855L23.8627 32.5635H25.1182L25.021 32.3284L16.8583 12.3813L11.9761 0.439941H10.7167Z" fill="url(#paint0_linear_18_118)"/>
<path fill-rule="evenodd" clip-rule="evenodd" d="M113.673 23.5266C112.336 26.2968 110.091 28.6691 107.214 30.3521C104.338 32.0351 100.955 32.9555 97.4812 33C94.0075 33.0446 90.5944 32.2115 87.6613 30.6031C84.7282 28.9947 82.4029 26.681 80.9711 23.9464C78.7672 19.7857 78.7633 13.2441 80.9711 9.08007C82.3982 6.34055 84.7213 4.02134 87.6546 2.40793C90.5879 0.794513 94.0033 -0.0426729 97.4803 -0.000561148C100.957 0.0415506 104.344 0.961115 107.224 2.64493C110.104 4.32875 112.351 6.70332 113.688 9.47632L113.785 9.6711H109.953L109.906 9.59722C108.734 7.68651 107.004 6.07401 104.887 4.91996C102.771 3.7659 100.341 3.11048 97.8404 3.0188C95.3397 2.92713 92.8548 3.4024 90.6325 4.3974C88.4103 5.39239 86.5281 6.87246 85.173 8.69053C82.0051 12.9049 82.0051 20.1081 85.173 24.309C86.5277 26.1273 88.4097 27.6075 90.6317 28.6028C92.8538 29.5981 95.3386 30.0737 97.8393 29.9824C100.34 29.891 102.77 29.2359 104.886 28.0822C107.003 26.9285 108.734 25.3162 109.906 23.4057L109.953 23.3318H113.785L113.673 23.5266ZM71.1991 28.9499V0.439697H74.6974V32.5632H69.9319L46.221 4.29143V32.5632H42.7227V0.439697H47.2744L71.1991 28.9499ZM130.535 14.1508L142.623 0.436336H147L132.723 16.6358L146.763 32.5632H142.39L130.535 19.1308L118.683 32.5632H114.407L128.335 16.6324L114.061 0.439697H118.438L130.535 14.1508Z" fill="black"/>
</g>
<defs>
<linearGradient id="paint0_linear_18_118" x1="19" y1="36" x2="18.5" y2="-10" gradientUnits="userSpaceOnUse">
<stop stop-color="#433CA4"/>
<stop offset="0.932292" stop-color="#9850EF"/>
<stop offset="1" stop-color="#6E66E6"/>
</linearGradient>
<clipPath id="clip0_18_118">
<rect width="147" height="33" fill="white"/>
</clipPath>
</defs>
</svg>
