<svg width="13" height="13" viewBox="0 0 13 13" fill="none" xmlns="http://www.w3.org/2000/svg">
<rect width="12.9911" height="13" rx="6.49557" fill="#7668FE"/>
<path d="M6.1562 0.00477791C4.04124 0.135097 2.19506 1.19937 1.04662 2.95052C0.511773 3.76773 0.175116 4.67725 0.0447971 5.66278C-0.0149324 6.11618 -0.0149324 6.8981 0.0447971 7.34607C0.240275 8.79586 0.886439 10.1018 1.90455 11.1145C2.9281 12.1299 4.22043 12.7652 5.65393 12.9552C6.10462 13.0149 6.88653 13.0149 7.33722 12.9552C9.24041 12.7027 10.8911 11.6629 11.9445 10.0583C12.4794 9.24112 12.8106 8.34246 12.9464 7.34607C13.0061 6.8981 13.0061 6.11618 12.9464 5.66278C12.7563 4.22928 12.121 2.93695 11.1056 1.9134C10.0956 0.898004 8.75986 0.23555 7.35079 0.0590773C7.00056 0.0156374 6.42227 -0.0115128 6.1562 0.00477791ZM7.29649 0.868139C7.92365 0.968594 8.44221 1.12606 8.94448 1.36769C10.5137 2.12789 11.6703 3.57768 12.045 5.25011C12.1536 5.73337 12.1834 6.00758 12.1834 6.50443C12.1834 8.03024 11.6079 9.41759 10.5164 10.5172C9.75354 11.2882 8.79244 11.8203 7.74989 12.0538C7.26663 12.1624 6.99241 12.1923 6.49557 12.1923C5.62135 12.1923 4.80686 12.0077 4.04667 11.6412C2.47741 10.881 1.32083 9.43117 0.946168 7.75874C0.837569 7.27548 0.807705 7.00127 0.807705 6.50443C0.807705 5.20124 1.21495 4.0338 2.02944 2.98853C2.23307 2.7279 2.74348 2.2202 3.00683 2.01657C3.8349 1.37855 4.777 0.982168 5.77611 0.859994C5.91186 0.843704 6.05846 0.824699 6.1019 0.81927C6.25937 0.79755 7.05486 0.83013 7.29649 0.868139Z" fill="white"/>
<path d="M6.27606 3.51083C6.10773 3.56241 5.96927 3.7226 5.92583 3.91808C5.82266 4.37962 6.18646 4.74071 6.65073 4.63754C6.96838 4.56424 7.14757 4.26016 7.07155 3.91808C6.99281 3.56513 6.65616 3.39409 6.27606 3.51083Z" fill="white"/>
<path d="M5.53101 5.73184C5.33825 5.80243 5.24323 5.9979 5.30024 6.20967C5.35997 6.42959 5.50929 6.5056 5.87853 6.5056H6.08758V7.72463V8.94365L5.62061 8.95451C5.23508 8.95994 5.13463 8.9708 5.06404 9.01153C4.8224 9.14184 4.8224 9.57081 5.06404 9.70113C5.14277 9.74728 5.26223 9.75 6.49483 9.75C7.99078 9.75 7.96363 9.75271 8.06137 9.56538C8.15911 9.37533 8.09395 9.10112 7.92562 9.01153C7.85503 8.9708 7.75458 8.95994 7.37176 8.95451L6.90479 8.94365L6.89664 7.46128C6.8885 5.81057 6.89393 5.85401 6.70388 5.75356C6.58442 5.68568 5.69934 5.66939 5.53101 5.73184Z" fill="white"/>
</svg>
