<svg width="13" height="14" viewBox="0 0 13 14" fill="none" xmlns="http://www.w3.org/2000/svg">
<rect y="0.5" width="12.9911" height="13" rx="6.49557" fill="#FF6868"/>
<path d="M6.1562 0.504778C4.04124 0.635097 2.19506 1.69937 1.04662 3.45052C0.511773 4.26773 0.175116 5.17725 0.0447971 6.16278C-0.0149324 6.61618 -0.0149324 7.3981 0.0447971 7.84607C0.240275 9.29586 0.886439 10.6018 1.90455 11.6145C2.9281 12.6299 4.22043 13.2652 5.65393 13.4552C6.10462 13.5149 6.88653 13.5149 7.33722 13.4552C9.24041 13.2027 10.8911 12.1629 11.9445 10.5583C12.4794 9.74112 12.8106 8.84246 12.9464 7.84607C13.0061 7.3981 13.0061 6.61618 12.9464 6.16278C12.7563 4.72928 12.121 3.43695 11.1056 2.4134C10.0956 1.398 8.75986 0.73555 7.35079 0.559077C7.00056 0.515637 6.42227 0.488487 6.1562 0.504778ZM7.29649 1.36814C7.92365 1.46859 8.44221 1.62606 8.94448 1.86769C10.5137 2.62789 11.6703 4.07768 12.045 5.75011C12.1536 6.23337 12.1834 6.50758 12.1834 7.00443C12.1834 8.53024 11.6079 9.91759 10.5164 11.0172C9.75354 11.7882 8.79244 12.3203 7.74989 12.5538C7.26663 12.6624 6.99241 12.6923 6.49557 12.6923C5.62135 12.6923 4.80686 12.5077 4.04667 12.1412C2.47741 11.381 1.32083 9.93117 0.946168 8.25874C0.837569 7.77548 0.807705 7.50127 0.807705 7.00443C0.807705 5.70124 1.21495 4.5338 2.02944 3.48853C2.23307 3.2279 2.74348 2.7202 3.00683 2.51657C3.8349 1.87855 4.777 1.48217 5.77611 1.35999C5.91186 1.3437 6.05846 1.3247 6.1019 1.31927C6.25937 1.29755 7.05486 1.33013 7.29649 1.36814Z" fill="white"/>
<path d="M6.27545 4.01083C6.10712 4.06241 5.96866 4.2226 5.92522 4.41808C5.82205 4.87962 6.18585 5.24071 6.65011 5.13754C6.96777 5.06424 7.14695 4.76016 7.07094 4.41808C6.9922 4.06513 6.65554 3.89409 6.27545 4.01083Z" fill="white"/>
<path d="M5.53162 6.23184C5.33886 6.30243 5.24384 6.4979 5.30085 6.70967C5.36058 6.92959 5.5099 7.0056 5.87914 7.0056H6.08819V8.22463V9.44365L5.62122 9.45451C5.23569 9.45994 5.13524 9.4708 5.06465 9.51153C4.82301 9.64184 4.82301 10.0708 5.06465 10.2011C5.14338 10.2473 5.26284 10.25 6.49544 10.25C7.99139 10.25 7.96424 10.2527 8.06198 10.0654C8.15972 9.87533 8.09456 9.60112 7.92623 9.51153C7.85564 9.4708 7.75519 9.45994 7.37237 9.45451L6.9054 9.44365L6.89725 7.96128C6.88911 6.31057 6.89454 6.35401 6.70449 6.25356C6.58503 6.18568 5.69995 6.16939 5.53162 6.23184Z" fill="white"/>
</svg>
