<svg width="12" height="12" viewBox="0 0 12 12" fill="none" xmlns="http://www.w3.org/2000/svg">
<path d="M4.54762 0.00722694C3.59405 0.0672941 2.62045 0.430202 1.87711 1.00085C0.678264 1.92939 0 3.32597 0 4.87271C0 5.97645 0.337881 6.98509 0.996122 7.83855C1.20636 8.11386 1.63684 8.54434 1.91466 8.75708C2.9308 9.54047 4.26981 9.88085 5.56127 9.68313C6.36217 9.55799 7.12553 9.23012 7.79128 8.72455L7.98149 8.58189L9.68091 10.2638C11.0124 11.5828 11.4028 11.9557 11.4779 11.9807C11.6581 12.0408 11.8258 11.9582 11.9184 11.7655C12.026 11.5452 12.1036 11.6378 10.2365 9.7507C9.3155 8.81715 8.55964 8.04628 8.55964 8.03878C8.55964 8.02876 8.61971 7.94117 8.6948 7.84105C9.59831 6.65472 9.89615 5.15302 9.52573 3.65884C9.1428 2.12461 7.99651 0.85318 6.49732 0.305062C5.88413 0.0798082 5.16582 -0.0303154 4.54762 0.00722694ZM5.51121 0.803123C6.31712 0.935773 7.02041 1.26865 7.61858 1.80676C8.46954 2.56511 8.94758 3.66635 8.95008 4.86019C8.95259 5.79875 8.68228 6.62718 8.12916 7.36301C7.93644 7.62331 7.50095 8.04879 7.24316 8.234C6.55989 8.72455 5.73897 8.98484 4.87299 8.98734C4.0846 8.98985 3.3763 8.79713 2.72057 8.40669C2.30259 8.15641 1.777 7.67086 1.48918 7.2654C0.810914 6.30933 0.583157 5.09045 0.86097 3.87158C0.961083 3.42107 1.20886 2.87546 1.48918 2.47751C1.6869 2.1997 2.13491 1.74919 2.40771 1.55397C3.07096 1.07843 3.66913 0.858186 4.58517 0.758073C4.73784 0.740553 5.29096 0.768084 5.51121 0.803123Z" fill="#C9CFD6"/>
</svg>
