<svg width="16" height="15" viewBox="0 0 16 15" fill="none" xmlns="http://www.w3.org/2000/svg">
<path d="M16 1.76764C15.4014 2.0728 14.7663 2.27296 14.116 2.36141C14.8012 1.88986 15.3139 1.14838 15.5586 0.27501C14.9139 0.714882 14.2082 1.02447 13.4723 1.1903C13.0216 0.639575 12.4373 0.257059 11.7951 0.0923561C11.1528 -0.0723474 10.4823 -0.0116405 9.87049 0.266605C9.25866 0.54485 8.73373 1.0278 8.36377 1.65282C7.99381 2.27785 7.79588 3.01611 7.79566 3.77189C7.79522 4.06093 7.82333 4.34909 7.87944 4.63086C6.57418 4.55558 5.29729 4.16586 4.13169 3.487C2.96609 2.80814 1.93783 1.85532 1.11367 0.690411C0.695356 1.52121 0.568167 2.50377 0.757946 3.4384C0.947725 4.37303 1.44023 5.1896 2.13538 5.72217C1.6147 5.70386 1.10537 5.54294 0.649808 5.25279V5.29973C0.648857 6.16815 0.909041 7.01032 1.38637 7.68384C1.8637 8.35735 2.52889 8.8209 3.26948 8.9961C2.78629 9.14648 2.27958 9.16815 1.78799 9.05946C1.99719 9.80869 2.40516 10.464 2.95479 10.9337C3.50442 11.4033 4.16819 11.6638 4.85313 11.6786C3.68762 12.7292 2.24787 13.298 0.766283 13.2933C0.510201 13.2931 0.254344 13.2759 0 13.2416C1.50167 14.3483 3.24873 14.9357 5.03295 14.9338C11.0692 14.9338 14.3714 9.18854 14.3714 4.20607C14.3714 4.04413 14.3714 3.8822 14.3714 3.72026C15.0106 3.18522 15.562 2.52409 16 1.76764Z" fill="#758698"/>
</svg>
