<svg width="15" height="14" viewBox="0 0 15 14" fill="none" xmlns="http://www.w3.org/2000/svg">
<g clip-path="url(#clip0_1_13142)">
<path d="M8.6004 4.78539V3.08253H12.6101V0.433594H1.65552V3.08247H5.6649V4.79193C2.42622 4.95753 0 5.63625 0 6.44841C0 7.26057 2.42622 7.93923 5.6649 8.10489V13.4117C6.1608 13.5131 6.67416 13.5661 7.2 13.5661C7.67844 13.5661 8.14662 13.5221 8.6004 13.4379V8.11143C11.9064 7.95795 14.4 7.27179 14.4 6.44841C14.4 5.62503 11.9064 4.93887 8.6004 4.78539ZM7.2 7.49511C3.58734 7.49511 0.65874 6.95091 0.65874 6.27939C0.65874 5.70615 2.793 5.22549 5.6649 5.09733V7.04445C6.15174 7.11459 6.64236 7.14987 7.13268 7.14987C7.62324 7.14987 8.11386 7.11459 8.6004 7.04445V5.09139C11.54 5.21079 13.741 5.69703 13.741 6.27933C13.741 6.95085 10.8123 7.49511 7.2 7.49511Z" fill="#4B5462"/>
</g>
<defs>
<clipPath id="clip0_1_13142">
<rect width="14.4" height="13.1325" fill="white" transform="translate(0 0.433594)"/>
</clipPath>
</defs>
</svg>
