<svg width="18" height="17" viewBox="0 0 18 17" fill="none" xmlns="http://www.w3.org/2000/svg">
<path d="M8.87749 0.525696C8.41137 0.608238 7.96953 0.92384 7.68306 1.37539C7.60051 1.50649 5.97881 4.37118 4.07549 7.73598C1.45842 12.368 0.603866 13.9121 0.565023 14.1063C0.497047 14.4316 0.579589 15.0531 0.734962 15.3735C0.870914 15.66 1.36617 16.1504 1.66235 16.2961C1.78373 16.3592 2.01194 16.4272 2.16731 16.4514C2.33725 16.4806 5.19709 16.5 9.29505 16.5C15.0244 16.5 16.1946 16.4854 16.4665 16.4272C17.2191 16.2718 17.8503 15.5969 17.9717 14.8249C18.0396 14.383 17.9862 14.0529 17.7969 13.6499C17.6027 13.2566 11.0867 1.73955 10.8342 1.34626C10.606 1.00153 10.3147 0.753901 9.97481 0.62766C9.66892 0.511129 9.19309 0.46743 8.87749 0.525696ZM9.50869 2.01631C9.62037 2.13284 16.248 13.781 16.4859 14.2762C16.6024 14.5238 16.5199 14.8103 16.2966 14.9463C16.146 15.0434 15.9955 15.0434 9.30476 15.0434C1.82257 15.0434 2.22072 15.0579 2.06535 14.7569C1.95367 14.5481 1.96824 14.3976 2.12847 14.1354C2.20615 14.0043 3.73561 11.2804 5.53211 8.07586C7.32861 4.87129 8.85321 2.18625 8.92604 2.10856C9.1591 1.85608 9.32419 1.8318 9.50869 2.01631Z" fill="#F6C243"/>
<path d="M8.98944 6.36306C8.79523 6.42133 8.60587 6.64468 8.53789 6.89716C8.5039 7.0234 8.48934 7.63032 8.49905 8.60626C8.51361 10.0192 8.51847 10.1309 8.61072 10.2862C8.76124 10.5436 8.94089 10.6504 9.20308 10.6504C9.52354 10.6455 9.73718 10.5241 9.85371 10.2765C9.93625 10.0872 9.94596 9.9415 9.94596 8.49459C9.94596 7.04768 9.93625 6.90201 9.85371 6.71265C9.7129 6.41162 9.33418 6.25624 8.98944 6.36306Z" fill="#F6C243"/>
<path d="M9.10333 11.4328C8.90911 11.4765 8.71004 11.5639 8.55952 11.6804C8.38473 11.8115 8.20508 12.2194 8.20508 12.4913C8.20508 12.7632 8.38473 13.1711 8.55952 13.3021C8.92853 13.5789 9.37038 13.6275 9.77338 13.4381C10.0259 13.3167 10.1618 13.1613 10.2686 12.8506C10.3949 12.501 10.3317 12.1126 10.0987 11.7921C9.93846 11.5591 9.3898 11.3648 9.10333 11.4328Z" fill="#F6C243"/>
</svg>
